<svg xmlns="http://www.w3.org/2000/svg" width="73" height="63" viewBox="0 0 73 63" fill="none">
<path d="M60.7257 14.193C60.4143 16.0542 60.0879 17.9052 59.7547 19.7603C59.5443 20.8962 59.2289 22.0083 59.2217 23.196C59.2164 23.5166 59.412 23.8885 59.1957 24.1666C59.195 24.1675 59.1961 24.1689 59.1972 24.1683C59.1979 24.1679 59.1989 24.1684 59.1988 24.1693C59.1882 24.5131 59.2384 24.8683 59.1622 25.1935C58.8805 26.4271 58.7513 27.751 58.3389 28.9003C58.3209 28.9482 58.3875 29.0319 58.3709 29.0978C58.2946 29.4237 57.9599 30.5656 57.822 31.3216C57.5055 33.0636 57.1237 34.787 56.191 36.3775C56.0413 36.6237 54.7199 40.2891 52.9639 39.8376C51.1355 39.3715 51.3559 35.5996 51.5228 35.1463C51.9391 34.0511 52.6049 33.0092 52.529 31.8037C52.4197 30.0351 53.0317 28.4418 53.2892 26.7714C53.5228 25.2651 53.9378 23.8044 54.1606 22.2949C54.3652 20.8805 54.2685 19.3864 54.585 17.992C54.8584 16.7914 55.5708 15.7038 55.9929 14.5396C56.0908 14.267 55.8399 13.8482 55.9352 13.5396C56.0167 13.2859 56.118 12.8611 56.3303 12.6445C56.4235 12.5532 56.5303 12.4539 56.4898 12.3364C56.2995 11.7699 57.6122 7.88409 59.7391 8.44087C61.821 8.96723 60.998 12.5798 60.7257 14.193Z" fill="#4bd9ef"/>
<path d="M36.0448 27.1343C36.4339 28.5347 36.8093 29.943 37.1738 31.3483C37.3998 32.2135 37.5097 33.0988 37.9283 33.9185C38.1543 34.3735 38.4951 34.8186 38.5938 35.3169C38.5945 35.3204 38.5951 35.3238 38.5958 35.3273C38.7818 36.2813 39.1507 37.2519 39.1867 38.1987C39.1893 38.2348 39.2806 38.2666 39.2845 38.3207C39.3313 38.5755 39.4397 39.4898 39.5877 40.0619C39.9252 41.3888 40.2094 42.7182 39.9283 44.158C39.8838 44.381 39.9978 47.4056 38.2415 47.7433C36.4114 48.0954 35.2452 45.3964 35.2289 45.0207C35.2064 44.1131 35.4394 43.1426 34.9362 42.3341C34.1955 41.1461 34.1787 39.8219 33.8068 38.5619C33.4727 37.4303 33.3284 36.2643 32.9805 35.1407C32.6516 34.0813 32.0317 33.0865 31.8188 32.0071C31.6381 31.0782 31.889 30.0597 31.8557 29.102C31.843 28.8745 31.4657 28.6791 31.4407 28.4305C31.4224 28.225 31.3663 27.891 31.475 27.6686C31.5217 27.5758 31.5849 27.4642 31.5088 27.3955C31.1292 27.0698 30.9189 23.8941 33.0562 23.5056C35.1539 23.1117 35.7082 25.9196 36.0448 27.1343Z" fill="#4bd9ef"/>
<path d="M6.89159 34.3102C8.27645 35.8402 9.64079 37.382 11.0092 38.9309C11.8504 39.8825 12.5971 40.9073 13.5889 41.725C13.8599 41.9427 14.2815 42.0455 14.3887 42.4131C14.3889 42.4138 14.388 42.4143 14.3877 42.4137C14.3874 42.4131 14.3881 42.4125 14.3886 42.4129C14.6723 42.6518 14.9923 42.8604 15.2253 43.1379C16.0933 44.2149 17.1416 45.2253 17.8675 46.3561C17.8919 46.3984 18.0024 46.4003 18.0568 46.4629C18.2877 46.7522 19.0547 47.8123 19.6092 48.441C20.8892 49.9 22.1254 51.3937 22.9249 53.2523C23.0494 53.5468 25.3667 57.1498 23.9921 58.2909C22.5642 59.4817 19.5204 56.7208 19.2382 56.2638C18.5545 55.1743 18.0612 53.9093 17.0051 53.1382C15.4604 52.0104 14.4702 50.4216 13.2144 49.052C12.0863 47.8246 11.0924 46.4822 9.95064 45.2627C8.88229 44.1229 7.57164 43.1794 6.58682 41.9633C5.73511 40.9145 5.2257 39.5741 4.49173 38.4292C4.31942 38.1623 3.82161 38.074 3.62342 37.7939C3.46054 37.5592 3.15901 37.1791 3.10018 36.8561C3.07614 36.7197 3.05765 36.5613 2.92955 36.5131C2.3395 36.2808 -0.169686 32.5349 1.50464 31.1549C3.12963 29.8316 5.68882 32.985 6.89159 34.3102Z" fill="#4bd9ef"/>
</svg>